<svg width="28" height="30" viewBox="0 0 28 30" fill="none" xmlns="http://www.w3.org/2000/svg">
<path d="M2.09167 24C1.85932 23.9999 1.63085 23.9344 1.42795 23.8099C1.22505 23.6853 1.05444 23.5058 0.932312 23.2884C0.810187 23.071 0.740595 22.8228 0.730141 22.5675C0.719687 22.3122 0.768716 22.0581 0.872577 21.8295L3.4553 16.1445V12C3.4553 8.8174 4.60465 5.76516 6.6505 3.51472C8.69636 1.26428 11.4711 0 14.3644 0C17.2577 0 20.0324 1.26428 22.0783 3.51472C24.1241 5.76516 25.2735 8.8174 25.2735 12V16.146L27.8562 21.8295C27.9601 22.0581 28.0091 22.3122 27.9986 22.5675C27.9882 22.8228 27.9186 23.071 27.7965 23.2884C27.6744 23.5058 27.5037 23.6853 27.3008 23.8099C27.0979 23.9344 26.8695 23.9999 26.6371 24H2.09167ZM14.3644 30C13.155 29.9998 11.98 29.5578 11.0238 28.7433C10.0676 27.9287 9.38446 26.7879 9.08167 25.5H19.6471C19.3443 26.7879 18.6612 27.9287 17.705 28.7433C16.7488 29.5578 15.5738 29.9998 14.3644 30Z" fill="#418043"/>
</svg>
